<svg data-name="Layer 1" xmlns="http://www.w3.org/2000/svg" viewBox="0 0 316.5 56.02">
  <defs>
    <style>
      @keyframe dotI {
        50% {
          visibility: visible;
        }
        100% {
          stroke: black;
        }
      }
      .cls-1, .cls-2 {
        fill: none;
        stroke-linecap: round;
        stroke-linejoin: round;
        stroke-width: 5px;
      }
      #dot1, #dot2 {
      }
    </style>
        <linearGradient id="animated-gradient" > 
            
            <stop offset="0%" stop-color="#000000">
                <animate attributeName="stop-color" values="#C6FFDD; #FBD786; #F7797D, #6DD5ED, #C6FFDD" dur="11s" ></animate>
            </stop>

            <stop offset="25%" stop-color="#000000">
                <animate attributeName="stop-color" values="#FBD786; #F7797D; #6DD5ED, #C6FFDD, #FBD786" dur="11s" ></animate>
            </stop>
            
            <stop offset="50%" stop-color="#000000">
                <animate attributeName="stop-color" values="#F7797D; #6DD5ED; #C6FFDD, #FBD786, #F7797D" dur="11s" ></animate>
            </stop>
            
            <stop offset="75%" stop-color="#000000">
                <animate attributeName="stop-color" values="#6DD5ED; #C6FFDD; #FBD786, #F7797D, #6DD5ED" dur="11s" ></animate>
            </stop>
            
            <stop offset="100%" stop-color="#000000">
                <animate attributeName="stop-color" values="#C6FFDD; #FBD786; #F7797D, #6DD5ED, #C6FFDD" dur="11s" ></animate>
            </stop>

        </linearGradient> 

  </defs>
  <g>
    <path stroke="url('#animated-gradient')" id="vector1" class="cls-1" d="M22.65,13.3C11.13,40.7,10.85,49.94,14,52.09c4,2.7,15.62-4.23,19.5-7.08,6.85-5,8.63-7.7,13.5-15.69,3-6.8,6-17.34-1.5-23.8-8.5-7.4-41,0-43,10.13C.66,25.19,61.77,29.52,63.48,29.41a10.39,10.39,0,0,1,3.38.26c10.87,2.85,10.68,23-2.32,23-16.56-.25-14.86-19.83.94-23.28,8.1-1.77,20.6.68,22.45,2.39,13.32,12.28-18,37.18-.39,6.61C96,26.37,116.06,24.1,107,41c-5.72,14.61-17.39,16-4.5-1,15.94-17.77,29.83-11.5,13.5,6-8.17,10.53,6,6.83,14,3,5.23-2.53,10.83-7.79,12-10,9.22-14.89-3.55-12.5-7,0-2.34,8.49-.1,18.81,9.5,12,20.58-20,14.65-27.9,9.84-15.5a48.8,48.8,0,0,0-2.51,9.89c-2.76,11.4-1,10,5.67.32,9.85-21.36,19.45-19,20-12.37.53,6.34-6.83,13.83-3.5,19.11,7.44,5.39,21.61-10,20.66-21.3-.12-1.54-2.59-1.54-3.47-.28-6.56,5.48-12.54,21.81-4.69,21.86,7.08,0,9.67-3.37,23.67-16.87,14.5-11,.5-8-5.5,3.5-2.36,6.68-2.83,10.7-1.08,12.31,3.22,3,14.48.08,25.58-7.81" transform="translate(0 -0.02)"/>
    <circle id="dot1" class="cls-2" cx="150.04" cy="18.02" r="2"/>
    <circle id="dot2" class="cls-1" cx="197.04" cy="18.02" r="2"/>
    <path stroke="url('#animated-gradient')" class="cls-1" d="M238.44,51.44S242,4.78,254.56,3.32c12.11-1.41,12.32,37.44,5.66,36.79-7.47-.73,3.26-38.95,15.84-36.43s1.72,47.1,1.72,47.1a14.86,14.86,0,0,0,7.11-2A15.91,15.91,0,0,0,292,38.56c2.56-6.44,8.38-9.53,12.51-8.2,3.16,1,6.44,5,5.71,8.42A5,5,0,0,1,309.11,41a11.77,11.77,0,0,1-3.78,7.78,11.26,11.26,0,0,1-5.55,2.66,10.7,10.7,0,0,1-7.78-8c-1.21-5.49,2.61-9.49,2.89-9.77a8.21,8.21,0,0,1,7.55-3.78,8.58,8.58,0,0,1,6.45,4.22,15.4,15.4,0,0,0,.44,12A14.3,14.3,0,0,0,314,51.44" transform="translate(0 -0.02)"/>
  </g>
</svg>
