<svg id="Dominic" width="233" height="58" viewBox="0 0 233 58" fill="none" xmlns="http://www.w3.org/2000/svg">
<g>
<path id="vector1" d="M23.5 17.1691L5 53.6076H9.5C17.862 52.6385 22.1147 51.0469 29 46.5224C35.8502 41.4915 37.6325 38.8292 42.5 30.8336C45.5 24.0001 48.5 13.5001 41 7.00004C32.5 -0.366738 15 1.98638 3 17.1691C22.4592 29.6383 35.7106 33.1166 65 30.8336M65 30.8336C52.5 32.3518 46 52.5954 57.5 53.6076C70.5 54.7519 79.5 33.364 65 30.8336ZM65 30.8336C72.3966 50.3763 78.361 50.6313 92 33.364L83.5 55.1259C101 23.2422 124.5 20.2056 100 53.6076C120 17.6752 134 28.8092 117.5 47.5345C111.83 54.9078 118.5 57 134.5 48.5467L142 33.364C130.182 60.9542 138.155 57.527 151 48.5467C156.338 44.2929 158.878 40.8032 162.5 32.3518L153.5 55.1259C196.054 2.41693 168.264 55.7633 175 55.1259C181.736 54.4885 193.864 42.4877 198 33.364C193.382 41.5052 188.5 47.5 192.5 52.5C196.5 57.5 206.944 47.6582 210.201 42M210.201 42C212.895 37.3188 216.36 32.4936 227 30.8336C217.429 33.0184 213.677 35.4085 210.201 42ZM210.201 42C207.682 56.4664 211.994 57.8236 230.5 47.5345" stroke="#0000FF" stroke-width="5" stroke-linecap="round" stroke-linejoin="round"/>
<path id="vector2" d="M146 22L147.5 20H150.5L149.5 22H146Z" stroke="#0000FF" stroke-width="5" stroke-linecap="round" stroke-linejoin="round"/>
<path id="vector3" d="M201 22.5L202.5 20.5H205L204 22.5H201Z" stroke="#0000FF" stroke-width="5" stroke-linecap="round" stroke-linejoin="round"/>
</g>
</svg>
